<svg width="1167" height="477" viewBox="0 0 1167 477" xmlns="http://www.w3.org/2000/svg"><defs><linearGradient id="a" x1="0" y1="0" x2="0" y2="1"><stop offset="0%"><animate attributeName="stop-color" values="#893279; #f3b581; #b1cc96; #a3d6ce; #000000" dur="5s"/></stop><stop offset="100%"><animate attributeName="stop-color" values="#fcf188; #c53467; #f7efa5; #006455; #000000" dur="5s"/></stop></linearGradient></defs><path fill="url('#a')" d="M1029.6 334.505c11.28 0 22.74 1.997 32.56 5.635l-6.73 52.201c-.22-.241-.45-.48-.67-.718l-.69-.71c-6.71-6.824-15.2-12.399-25.74-12.399-14.92 0-28.917 11.822-31.286 26.742-2.361 15.095 8.546 26.728 23.466 26.728 11.45 0 21.46-4.905 30.73-12.726l-9.63 51.284c-4.66 2.087-12.41 3.521-19.94 4.394l-1.5.167c-.25.027-.5.053-.75.078l-1.48.145c-.24.023-.49.046-.73.067l-1.45.123-1.42.109c-.23.017-.47.034-.7.049l-1.36.088c-.22.013-.45.026-.67.039l-1.29.066-1.24.053-1.19.04-1.12.026-1.04.013c-.17.001-.34.002-.5.002-39.104 0-64.745-30.373-58.565-69.476 6.188-40.008 42.741-72.02 82.935-72.02zm136.41 2.18l-5.82 37.471h-42.02l-2.17 13.091h38.37l-5.64 35.648h-38.38l-1.99 13.462h43.46l-6 37.464h-93.67l21.64-137.136h92.22zm-597.284 0c30.919 0 55.11 13.098 49.651 47.653-3.273 20.737-12.726 29.461-32.187 35.649l-.182 1.086 1.523 1.38.531.491c1.696 1.585 3.504 3.498 5.038 6.314l22.733 44.563h-57.471l-14.913-44.016h-.911l-6.909 44.016h-48.747l21.647-137.136h60.197zm120.402 0l-21.64 137.136h-49.833l21.64-137.136h49.833zm107.311 0l-5.824 37.471h-42.012l-2.179 13.091h38.374l-5.641 35.648h-38.375l-1.997 13.462h43.462l-5.998 37.464h-93.667l21.641-137.136h92.216zm61.837 0l32.74 76.027h1.451l-.079-4.762-.035-2.394c-.118-9.19-.018-18.533 1.571-27.77l6.363-41.101h47.654L926.3 473.821h-47.653l-32.376-72.027h-1.45l.007 5.848-.006 2.309c-.035 6.519-.245 12.869-1.277 19.307l-7.092 44.563H788.8l21.64-137.136h47.836zm-675.855 0l7.091 19.461c1.276 3.182 1.854 6.504 2.344 9.843l.207 1.432h1.087c1.366-3.752 3.366-7.182 5.563-10.593l12.993-20.143h56.196l-52.923 64.198 37.282 72.938h-56.743l-11.093-29.104c-.911-2.725-1.458-5.452-1.458-8.36h-1.457c-1.451 3.266-3.273 6.363-5.453 9.454l-19.643 28.01H99.665l59.658-72.938-33.098-64.198h56.196zm157.872 0c32.011 0 53.105 16.37 47.835 50.379-4.548 28.011-24.738 45.467-52.566 45.467h-25.459l-6.552 41.29H255.54l21.64-137.136h63.113zm153.506 0l-5.824 37.471h-42.011l-2.18 13.091h38.375l-5.642 35.648h-38.374l-1.997 13.462h43.462l-5.999 37.464h-93.666l21.64-137.136h92.216zm-375.213 0l-5.823 37.471H70.751l-2.18 13.091h38.376l-5.642 35.648H62.93l-1.997 13.462h43.462l-5.998 37.464H4.73l21.64-137.136h92.216zm206.012 37.472l-5.224-.001-3.819 23.819 5.204-.001.878-.008.587-.013.882-.03.588-.028.588-.036.587-.043.585-.052c.097-.009.194-.019.291-.029l.582-.065.579-.075c.192-.026.384-.055.575-.085l.57-.096c.19-.034.378-.069.566-.107l.561-.119c.186-.042.371-.086.554-.132l.549-.144.541-.158.533-.172c4.588-1.552 8.249-4.744 9.302-11.158.882-5.793-1.629-8.615-5.414-9.986l-.425-.147a18.5 18.5 0 00-.436-.134l-.444-.124c-.075-.02-.151-.039-.226-.058l-.457-.109-.465-.098c-.078-.016-.157-.031-.235-.046l-.476-.084-.481-.076-.486-.067c-.081-.011-.163-.021-.245-.031l-.493-.056-.497-.049-.5-.042-.754-.052-.505-.028-.505-.023a69.12 69.12 0 00-1.011-.032l-.882-.017-1.122-.008zm231.217.001l-4.363-.002-3.637 23.28 3.744-.001.867-.008.577-.013.865-.03.574-.029.571-.036c.095-.007.19-.014.285-.021l.567-.049.563-.057c.093-.01.187-.021.28-.032l.557-.073c.092-.013.184-.026.276-.04l.549-.088.543-.1c.09-.017.179-.035.269-.054l.533-.118c4.942-1.159 8.94-4.003 10.02-10.716 1.047-6.732-1.538-9.684-5.769-10.938l-.428-.12-.439-.109-.449-.099c-.076-.015-.152-.031-.228-.045l-.464-.084-.472-.075-.481-.066-.489-.057-.497-.05-.503-.043-.511-.035-.517-.029-.523-.023-.794-.024-1.076-.016zM307.188 167.282c23.826 0 54.745 11.818 61.843 35.281l-49.292 17.099c-2.727-6.91-9.271-10.551-17.274-10.551-17.829 0-30.015 15.281-32.741 31.826-2.362 15.095 4.912 29.286 21.1 29.286 7.821 0 18.368-3.638 22.005-12.005h-22.551l5.094-32.376h76.932l-.908 5.3-.457 2.6-.233 1.288-.236 1.28-.24 1.272-.246 1.265-.251 1.256-.259 1.25-.266 1.242c-.045.206-.09.412-.136.618l-.279 1.231c-.047.205-.095.409-.143.613l-.294 1.221c-3.344 13.592-8.736 25.891-21.315 37.605l-.568.524c-16.909 15.823-40.736 24.373-62.019 24.373-41.829 0-71.472-25.824-64.563-69.84 7.092-44.741 44.199-71.658 87.297-71.658zm-86.75 2.182L198.791 306.6h-49.833l21.647-137.136h49.833zm-142.231 0c46.013 0 78.207 20.19 70.204 70.569-6.545 40.737-39.285 66.567-79.482 66.567H5.823l21.641-137.136h50.743zm363.026 0L419.593 306.6H369.76l21.641-137.136h49.832zm111.13 0l-6.916 44.556-27.275-1.268-14.92 93.848H453.42l14.912-93.848-27.645 1.268 6.916-44.556h104.76zm81.662 0L661.307 306.6h-52.741l-1.822-17.099h-37.646l-6.734 17.099h-52.742l69.294-137.136h55.109zm101.852 0l-14.73 93.12h41.829l-6.909 44.016h-91.67l21.647-137.136h49.833zM73.659 212.387h-3.09l-8.368 53.106h3.091c16.552 0 30.379-7.639 33.287-25.642 3.09-19.279-6.728-27.464-24.92-27.464zm527.086 2.726h-1.822l-15.824 41.83h20.008l-2.004-24.191c-.374-4.026-.402-8.141-.383-12.224l.022-4.068c.002-.45.003-.899.003-1.347zM213.521.061c43.469 0 71.48 26.37 64.388 71.112-2.369 15.095-8.185 28.917-19.096 41.469l16.727 22.369-41.647 16.37-7.092-16.732c-12.369 5.092-25.824 6.91-38.375 6.91-41.465 0-68.382-28.374-61.837-70.386C133.681 27.342 172.056.061 213.521.061zm-128.95 0c15.641 0 29.467 3.819 41.654 12.001l-19.096 35.102-.426-.322-.859-.635c-7.35-5.35-15.864-9.408-25.997-9.408l-.232.002-.474.012-.488.025c-.165.011-.331.024-.499.04l-.508.053c-4.093.485-8.86 2.395-9.621 7.143-.47 3.28 1.852 4.75 4.536 5.622l.426.133.43.124.648.172.645.158 1.844.426.378.092 10.918 2.551c20.365 4.727 33.827 16.002 30.19 39.282-5.277 32.737-37.646 48.925-67.297 48.925-17.274 0-36.552-4.73-50.743-12.551l21.465-38.739 2.179 2.004c7.821 6.91 17.646 12.548 29.104 12.548.158 0 .32-.002.485-.006l.503-.02.519-.032c.175-.013.353-.029.533-.047l.545-.06.555-.076.563-.09c4.528-.786 9.593-3.066 10.298-7.854.662-3.748-1.483-5.426-4.247-6.368l-.419-.136-.426-.125-.433-.117-.437-.11-.66-.15-.88-.181-2.116-.411a46.263 46.263 0 01-.2-.041l-9.824-1.818c-18.914-3.455-33.463-14.913-30.008-36.378C22.194 18.25 54.745.061 84.571.061zm266.451 2.183l-14.731 93.12h41.83l-6.91 44.012h-91.662l21.64-137.132h49.833zm98.396 0l-21.647 137.132h-49.832L399.586 2.244h49.832zm-242.806 41.83c-16.188 0-27.282 11.275-29.643 26.188-2.187 14.369 5.27 27.281 20.007 27.281l.986-.003c1.623-.012 3.166-.088 4.83-.54l-9.453-12.729 31.822-5.824c1.406-2.65 2.008-4.497 2.495-6.575l.16-.703c.026-.119.052-.239.078-.36 2.362-15.278-6.552-26.735-21.282-26.735z"/></svg>