<?xml version="1.0" encoding="UTF-8" standalone="no"?>
<svg
   version="1.1"
   viewBox="0 0 1028 1132"
   id="svg38"
   xmlns="http://www.w3.org/2000/svg"
   xmlns:svg="http://www.w3.org/2000/svg">
  <defs
     id="defs42" />
  <g
     stroke-width="2.00"
     fill="none"
     stroke-linecap="butt"
     id="g18">
    <path
       stroke="#fbfbfb"
       vector-effect="non-scaling-stroke"
       d="   M 385.33 378.92   C 267.40 261.52 149.79 143.77 32.00 26.22   C 28.67 22.89 23.82 22.75 19.49 23.69   A 0.63 0.61 -6.5 0 0 19.00 24.29   Q 19.00 134.77 19.00 245.24   C 19.00 249.39 21.78 250.57 24.33 253.11   C 109.67 338.34 194.37 424.35 280.48 508.80   A 2.04 2.02 64.7 0 0 282.05 509.37   C 290.74 508.74 301.87 509.25 307.96 509.24   Q 346.70 509.16 385.44 509.32   Q 390.90 509.34 395.07 508.92   Q 397.43 508.68 397.44 506.25   L 397.49 393.50   Q 397.50 391.22 395.83 389.52   Q 390.59 384.16 385.33 378.92"
       id="path2" />
    <path
       stroke="#fbfbfb"
       vector-effect="non-scaling-stroke"
       d="   M 430.37 402.05   L 430.43 402.04   A 0.36 0.18 3.5 0 0 430.62 401.96   Q 615.83 216.75 801.08 31.58   Q 804.70 27.96 808.00 25.27   Q 809.69 23.89 807.51 23.74   Q 798.01 23.10 788.49 23.29   C 782.44 23.41 782.25 25.64 778.74 29.15   Q 598.27 209.22 418.08 389.51   Q 416.22 391.38 416.23 394.01   L 416.28 412.25   A 1.38 1.02 -72.4 0 0 416.57 413.10   Q 418.63 415.40 420.54 412.47   Q 423.05 408.60 426.88 405.93   C 428.27 404.97 429.19 403.38 430.27 402.11   A 0.22 0.13 -60.5 0 1 430.37 402.05"
       id="path4" />
    <path
       stroke="#fbfbfb"
       vector-effect="non-scaling-stroke"
       d="   M 419.51 465.29   C 459.73 426.17 499.08 386.16 538.73 346.48   Q 689.76 195.39 840.84 44.36   C 846.71 38.50 853.36 31.63 860.07 25.83   Q 862.38 23.84 859.25 23.60   Q 847.72 22.70 836.25 23.90   A 3.43 3.33 16.7 0 0 834.02 25.06   Q 827.37 32.85 820.09 40.09   C 756.55 103.22 693.16 166.50 629.87 229.87   C 560.35 299.48 491.19 369.50 421.10 438.52   C 418.79 440.79 416.12 444.45 416.20 447.24   Q 416.43 456.60 416.95 464.31   Q 417.17 467.56 419.51 465.29"
       id="path6" />
    <path
       stroke="#fbfbfb"
       vector-effect="non-scaling-stroke"
       d="   M 887.51 24.76   C 734.67 177.50 581.93 330.34 429.03 483.03   Q 424.73 487.33 420.33 491.59   C 415.91 495.86 415.38 502.54 416.92 508.19   A 0.93 0.89 0.4 0 0 417.55 508.80   C 421.61 509.96 427.82 510.40 430.99 506.99   Q 438.86 498.49 447.06 490.31   Q 677.50 260.13 907.82 29.83   C 909.53 28.12 911.81 26.47 913.69 24.66   Q 914.47 23.90 913.39 23.80   C 909.02 23.40 890.25 22.03 887.51 24.76"
       id="path8" />
    <path
       stroke="#fbfbfb"
       vector-effect="non-scaling-stroke"
       d="   M 541.04 448.84   C 541.08 448.79 541.06 448.81 541.16 448.79   A 0.44 0.33 8.0 0 0 541.34 448.69   Q 750.20 239.80 959.08 30.92   C 960.59 29.42 965.73 25.64 965.42 24.14   A 0.72 0.64 -2.9 0 0 964.78 23.63   C 959.75 23.28 941.69 22.02 938.67 25.42   Q 936.31 28.09 931.82 32.58   Q 695.40 269.07 458.91 505.50   C 457.36 507.04 456.98 509.23 460.00 509.28   Q 470.51 509.46 481.00 508.83   A 1.32 1.29 19.9 0 0 481.86 508.44   C 501.54 488.52 521.38 468.77 541.04 448.84"
       id="path10" />
    <path
       stroke="#fbfbfb"
       vector-effect="non-scaling-stroke"
       d="   M 544.29 498.04   Q 768.80 273.68 993.45 49.45   Q 995.71 47.20 997.93 44.83   A 1.79 0.93 -32.9 0 0 998.39 44.02   Q 999.45 37.91 998.81 31.74   A 2.01 0.77 42.2 0 0 998.29 30.71   L 994.09 25.42   A 1.40 1.32 47.7 0 0 992.03 25.26   C 990.24 27.18 987.96 28.99 986.34 30.61   C 833.29 183.19 680.52 336.07 527.76 488.94   C 523.39 493.32 516.10 501.41 509.53 507.04   Q 507.89 508.45 509.99 508.68   Q 520.96 509.89 532.00 508.96   Q 534.14 508.77 535.66 507.11   Q 540.16 502.17 544.29 498.04"
       id="path12" />
    <path
       stroke="#fbfbfb"
       vector-effect="non-scaling-stroke"
       d="   M 275.99 531.48   C 193.36 613.82 120.43 687.60 41.35 766.26   C 38.32 769.27 33.19 774.99 28.64 778.96   C 26.17 781.11 24.06 784.23 21.19 786.27   Q 19.00 787.81 19.00 790.49   Q 18.99 904.50 19.08 1018.50   Q 19.08 1023.51 22.05 1020.32   Q 27.90 1014.03 33.97 1007.97   Q 211.52 830.73 389.08 653.50   C 392.82 649.77 397.67 645.21 397.61 639.50   Q 396.99 585.81 397.52 532.12   C 397.54 529.13 397.05 527.47 393.74 527.47   Q 341.79 527.46 289.83 527.55   C 283.47 527.56 280.08 527.40 275.99 531.48"
       id="path14" />
    <path
       stroke="#fbfbfb"
       vector-effect="non-scaling-stroke"
       d="   M 422.01 650.74   Q 422.05 650.82 422.12 650.89   C 570.61 799.28 718.92 947.87 867.52 1096.16   Q 867.99 1096.64 875.18 1104.15   C 880.03 1109.22 886.72 1115.92 893.18 1110.11   Q 894.68 1108.77 896.11 1107.35   C 929.08 1074.75 962.56 1042.46 995.12 1009.45   C 999.19 1005.32 1000.03 1000.01 998.70 994.60   C 997.71 990.57 994.71 988.36 991.67 985.32   Q 883.72 877.58 539.13 532.62   Q 533.94 527.42 525.82 527.40   C 489.98 527.32 454.05 526.97 418.23 528.03   A 1.63 1.62 -88.6 0 0 416.66 529.54   C 415.93 539.33 416.67 551.84 416.72 558.93   Q 417.02 601.18 416.37 643.45   A 1.26 0.19 -88.0 0 0 416.49 644.50   L 421.83 650.43   Q 421.85 650.46 422.01 650.74"
       id="path16" />
  </g>
  <path
     fill="#f7f7f7"
     d="   M 32.00 26.22   C 149.79 143.77 267.40 261.52 385.33 378.92   Q 390.59 384.16 395.83 389.52   Q 397.50 391.22 397.49 393.50   L 397.44 506.25   Q 397.43 508.68 395.07 508.92   Q 390.90 509.34 385.44 509.32   Q 346.70 509.16 307.96 509.24   C 301.87 509.25 290.74 508.74 282.05 509.37   A 2.04 2.02 64.7 0 1 280.48 508.80   C 194.37 424.35 109.67 338.34 24.33 253.11   C 21.78 250.57 19.00 249.39 19.00 245.24   Q 19.00 134.77 19.00 24.29   A 0.63 0.61 -6.5 0 1 19.49 23.69   C 23.82 22.75 28.67 22.89 32.00 26.22   Z"
     id="path22" />
  <path
     fill="#f7f7f7"
     d="   M 430.27 402.11   C 429.19 403.38 428.27 404.97 426.88 405.93   Q 423.05 408.60 420.54 412.47   Q 418.63 415.40 416.57 413.10   A 1.38 1.02 -72.4 0 1 416.28 412.25   L 416.23 394.01   Q 416.22 391.38 418.08 389.51   Q 598.27 209.22 778.74 29.15   C 782.25 25.64 782.44 23.41 788.49 23.29   Q 798.01 23.10 807.51 23.74   Q 809.69 23.89 808.00 25.27   Q 804.70 27.96 801.08 31.58   Q 615.83 216.75 430.62 401.96   A 0.36 0.18 3.5 0 1 430.43 402.04   L 430.37 402.05   A 0.22 0.13 -60.5 0 0 430.27 402.11   Z"
     id="path24" />
  <path
     fill="#f7f7f7"
     d="   M 538.73 346.48   C 499.08 386.16 459.73 426.17 419.51 465.29   Q 417.17 467.56 416.95 464.31   Q 416.43 456.60 416.20 447.24   C 416.12 444.45 418.79 440.79 421.10 438.52   C 491.19 369.50 560.35 299.48 629.87 229.87   C 693.16 166.50 756.55 103.22 820.09 40.09   Q 827.37 32.85 834.02 25.06   A 3.43 3.33 16.7 0 1 836.25 23.90   Q 847.72 22.70 859.25 23.60   Q 862.38 23.84 860.07 25.83   C 853.36 31.63 846.71 38.50 840.84 44.36   Q 689.76 195.39 538.73 346.48   Z"
     id="path26" />
  <path
     fill="#f7f7f7"
     d="   M 429.03 483.03   C 581.93 330.34 734.67 177.50 887.51 24.76   C 890.25 22.03 909.02 23.40 913.39 23.80   Q 914.47 23.90 913.69 24.66   C 911.81 26.47 909.53 28.12 907.82 29.83   Q 677.50 260.13 447.06 490.31   Q 438.86 498.49 430.99 506.99   C 427.82 510.40 421.61 509.96 417.55 508.80   A 0.93 0.89 0.4 0 1 416.92 508.19   C 415.38 502.54 415.91 495.86 420.33 491.59   Q 424.73 487.33 429.03 483.03   Z"
     id="path28" />
  <path
     fill="#f7f7f7"
     d="   M 541.04 448.84   C 521.38 468.77 501.54 488.52 481.86 508.44   A 1.32 1.29 19.9 0 1 481.00 508.83   Q 470.51 509.46 460.00 509.28   C 456.98 509.23 457.36 507.04 458.91 505.50   Q 695.40 269.07 931.82 32.58   Q 936.31 28.09 938.67 25.42   C 941.69 22.02 959.75 23.28 964.78 23.63   A 0.72 0.64 -2.9 0 1 965.42 24.14   C 965.73 25.64 960.59 29.42 959.08 30.92   Q 750.20 239.80 541.34 448.69   A 0.44 0.33 8.0 0 1 541.16 448.79   C 541.06 448.81 541.08 448.79 541.04 448.84   Z"
     id="path30" />
  <path
     fill="#f7f7f7"
     d="   M 544.29 498.04   Q 540.16 502.17 535.66 507.11   Q 534.14 508.77 532.00 508.96   Q 520.96 509.89 509.99 508.68   Q 507.89 508.45 509.53 507.04   C 516.10 501.41 523.39 493.32 527.76 488.94   C 680.52 336.07 833.29 183.19 986.34 30.61   C 987.96 28.99 990.24 27.18 992.03 25.26   A 1.40 1.32 47.7 0 1 994.09 25.42   L 998.29 30.71   A 2.01 0.77 42.2 0 1 998.81 31.74   Q 999.45 37.91 998.39 44.02   A 1.79 0.93 -32.9 0 1 997.93 44.83   Q 995.71 47.20 993.45 49.45   Q 768.80 273.68 544.29 498.04   Z"
     id="path32" />
  <path
     fill="#f7f7f7"
     d="   M 41.35 766.26   C 120.43 687.60 193.36 613.82 275.99 531.48   C 280.08 527.40 283.47 527.56 289.83 527.55   Q 341.79 527.46 393.74 527.47   C 397.05 527.47 397.54 529.13 397.52 532.12   Q 396.99 585.81 397.61 639.50   C 397.67 645.21 392.82 649.77 389.08 653.50   Q 211.52 830.73 33.97 1007.97   Q 27.90 1014.03 22.05 1020.32   Q 19.08 1023.51 19.08 1018.50   Q 18.99 904.50 19.00 790.49   Q 19.00 787.81 21.19 786.27   C 24.06 784.23 26.17 781.11 28.64 778.96   C 33.19 774.99 38.32 769.27 41.35 766.26   Z"
     id="path34" />
  <path
     fill="#f7f7f7"
     d="   M 421.83 650.43   L 416.49 644.50   A 1.26 0.19 -88.0 0 1 416.37 643.45   Q 417.02 601.18 416.72 558.93   C 416.67 551.84 415.93 539.33 416.66 529.54   A 1.63 1.62 -88.6 0 1 418.23 528.03   C 454.05 526.97 489.98 527.32 525.82 527.40   Q 533.94 527.42 539.13 532.62   Q 883.72 877.58 991.67 985.32   C 994.71 988.36 997.71 990.57 998.70 994.60   C 1000.03 1000.01 999.19 1005.32 995.12 1009.45   C 962.56 1042.46 929.08 1074.75 896.11 1107.35   Q 894.68 1108.77 893.18 1110.11   C 886.72 1115.92 880.03 1109.22 875.18 1104.15   Q 867.99 1096.64 867.52 1096.16   C 718.92 947.87 570.61 799.28 422.12 650.89   Q 422.05 650.82 422.01 650.74   Q 421.85 650.46 421.83 650.43   Z"
     id="path36" />
</svg>
