<?xml version="1.0" encoding="UTF-8" standalone="no"?>
<svg
   version="1.1"
   viewBox="0 0 2407 871"
   id="svg130"
   xmlns="http://www.w3.org/2000/svg"
   xmlns:svg="http://www.w3.org/2000/svg">
  <defs
     id="defs134" />
  <path
     fill="#9fddd2"
     d="   M 611.15 194.64   C 626.02 208.03 642.67 218.04 663.12 215.80   Q 669.40 215.11 672.94 212.82   C 676.54 210.49 680.99 204.52 679.36 199.88   C 676.63 192.09 659.55 191.03 653.23 190.09   C 634.47 187.30 614.66 179.15 607.04 160.41   C 602.09 148.24 603.70 136.89 607.03 124.56   C 617.34 86.40 659.31 60.51 696.93 59.01   C 710.71 58.46 725.48 58.84 738.47 62.55   C 748.43 65.40 760.00 69.79 768.08 76.50   A 0.69 0.63 34.2 0 1 768.27 77.29   Q 754.83 103.10 740.36 128.34   A 0.54 0.38 34.1 0 1 739.66 128.35   C 726.10 118.62 700.94 107.32 684.81 118.10   Q 682.62 119.56 681.98 122.11   C 680.26 128.97 682.52 132.08 689.12 133.45   Q 711.84 138.18 726.51 143.47   C 735.32 146.66 745.27 154.10 750.58 161.92   C 756.37 170.47 757.90 180.26 757.45 190.65   C 756.61 209.85 746.74 229.62 732.74 242.61   C 690.62 281.70 627.59 276.88 579.44 253.04   A 0.64 0.62 27.9 0 1 579.16 252.17   L 610.87 194.60   A 0.22 0.13 38.8 0 1 611.15 194.64   Z"
     id="path68" />
  <path
     fill="#9fddd2"
     d="   M 855.75 271.53   C 813.34 268.52 777.31 245.65 769.79 201.23   C 763.36 163.20 777.53 124.70 803.59 97.96   C 825.15 75.83 857.11 61.03 887.97 59.25   C 909.41 58.01 928.45 58.85 948.33 67.18   C 979.25 80.13 996.16 104.46 998.62 137.62   C 999.43 148.53 998.21 159.68 996.40 170.67   C 992.96 191.46 982.95 211.07 969.41 227.16   A 1.03 0.95 -43.4 0 0 969.33 228.39   L 993.53 261.24   A 0.69 0.67 64.3 0 1 993.17 262.31   C 985.83 264.23 978.91 267.42 971.88 270.20   C 958.74 275.41 945.20 280.37 932.04 285.91   A 0.38 0.30 64.8 0 1 931.62 285.70   Q 925.80 273.93 920.97 261.73   A 0.59 0.55 -19.5 0 0 920.25 261.42   C 898.77 268.40 877.16 273.04 855.75 271.53   Z   M 851.03 147.67   C 837.23 172.72 847.40 210.81 882.93 204.82   A 1.05 1.04 67.0 0 0 883.59 203.17   L 871.49 186.74   Q 870.11 184.86 872.41 184.56   C 886.91 182.72 900.96 179.46 915.67 176.81   C 922.99 175.49 923.09 158.09 922.43 152.34   C 920.95 139.36 911.06 127.32 897.81 125.23   C 877.82 122.08 860.57 130.36 851.03 147.67   Z"
     id="path70" />
  <path
     fill="#9fddd2"
     d="   M 1222.94 268.02   L 1149.00 268.01   A 0.45 0.39 -86.1 0 1 1148.62 267.51   C 1151.14 249.27 1153.87 231.00 1157.51 211.50   C 1159.76 199.42 1161.06 185.97 1163.21 173.90   C 1167.47 150.02 1170.76 125.51 1174.79 102.11   C 1176.92 89.75 1178.54 75.48 1180.78 62.19   A 0.56 0.53 -84.9 0 1 1181.31 61.73   L 1255.69 61.68   A 0.36 0.23 -82.4 0 1 1255.89 62.10   C 1253.20 75.95 1251.39 91.57 1249.34 103.86   C 1242.65 143.99 1237.26 184.35 1230.25 224.40   C 1227.92 237.70 1226.24 253.28 1223.39 267.66   A 0.46 0.44 5.3 0 1 1222.94 268.02   Z"
     id="path72" />
  <path
     fill="#9fddd2"
     d="   M 1086.50 202.00   L 1148.00 202.00   A 0.38 0.37 5.1 0 1 1148.37 202.44   C 1145.92 216.48 1144.35 231.35 1141.99 244.58   Q 1140.09 255.19 1138.01 266.91   A 1.35 1.27 -84.6 0 1 1136.75 268.02   L 1000.50 268.01   A 0.38 0.38 5.6 0 1 1000.13 267.56   C 1003.21 252.13 1004.86 236.10 1007.54 221.16   Q 1011.09 201.35 1013.86 181.41   C 1015.92 166.65 1019.08 151.18 1021.01 137.50   Q 1023.39 120.59 1025.48 108.04   C 1027.98 93.07 1029.79 77.77 1032.59 62.63   A 1.20 1.07 4.6 0 1 1033.75 61.75   L 1107.25 61.75   A 0.44 0.37 -84.2 0 1 1107.60 62.26   C 1104.96 76.85 1103.34 91.78 1100.74 106.08   Q 1097.94 121.51 1095.74 137.02   C 1092.70 158.45 1087.76 179.89 1086.10 201.43   A 0.53 0.41 -87.5 0 0 1086.50 202.00   Z"
     id="path74" />
  <path
     fill="#9fddd2"
     d="m 171.02,519.37 c -5.38,-5.32 -8.68,-12.11 -11.96,-18.83 -6.6,-13.51 -14.1,-26.33 -22.07,-39.06 C 125.28,442.77 110,426.68 97.55,407.7 Q 93.92,402.17 86.64,387.19 C 65.32,343.37 62.43,291.54 74.39,244.44 78.95,226.47 86.56,210.18 96.17,192.98 q 3.73,-6.66 9.11,-13.79 c 12.15,-16.12 25.54,-32.65 41.58,-43.97 5.43,-3.82 10.15,-8.47 16.12,-11.95 12.65,-7.38 26.05,-14.96 39.37,-19.92 18.57,-6.92 38.07,-10.6 57.75,-12.65 28.84,-3.02 60.38,2.95 87.59,12.28 q 8.77,3.01 18.28,7.99 c 11.77,6.17 23.2,12.37 33.81,20.74 16.79,13.23 31.89,27.43 44.63,45.34 37.52,52.75 48.27,114.92 32.63,176.83 q -1.5,5.94 -4.63,13.83 c -5.7,14.35 -10.86,30.05 -20.61,42.76 -4.27,5.57 -7.94,11.94 -12.1,17.08 -10.36,12.76 -18.09,22.07 -28.82,39.04 -10.03,15.87 -18.44,33.13 -27.67,49.59 -3.71,6.62 -8.36,7.31 -16.06,7.31 q -92.08,0.02 -184.15,0 c -5.26,0 -8.11,-0.3 -11.98,-4.12 z M 121.19,256.94 c -12.37,47.82 -3.77,97.44 26.13,137 9.58,12.68 19.43,25.25 28.19,38.42 10.88,16.34 17.24,27.1 24.49,41.63 a 1.82,1.82 0 0 0 1.53,1.01 c 2.35,0.13 4.92,-0.27 6.96,-0.27 q 71.4,0.06 142.86,-0.02 a 0.75,0.8 12.7 0 0 0.7,-0.47 c 11.12,-25.37 27.1,-47.85 44.28,-69.41 q 15.88,-19.9 18.63,-24.87 c 11.8,-21.33 19.8,-48.07 21.11,-72.4 0.17,-3.06 1.23,-6.83 1.19,-10.44 -0.69,-56.91 -32.43,-111.55 -83.12,-139.35 q -12.95,-7.11 -16.43,-8.49 -51.61,-20.41 -104.35,-6.1 c -20.87,5.66 -43.38,17.65 -59.69,31.88 -11.34,9.89 -16.63,15.66 -26.31,28.04 -11.1,14.2 -16.63,28.28 -24.02,46.65 q -0.82,2.06 -2.15,7.19 z"
     id="path76" />
  <path
     fill="#9fddd2"
     d="   M 1049.29 447.02   C 1038.53 446.37 1027.62 447.13 1016.77 446.66   A 0.49 0.48 -83.3 0 1 1016.32 446.08   Q 1020.34 426.01 1022.64 405.68   Q 1022.94 403.08 1024.16 398.99   A 0.68 0.59 -81.0 0 1 1024.75 398.50   L 1138.75 398.50   A 0.46 0.42 -85.8 0 1 1139.16 399.02   C 1136.76 416.49 1134.97 427.53 1130.00 442.01   C 1115.23 485.06 1076.63 510.73 1033.87 520.37   Q 998.43 528.35 964.00 515.81   C 927.34 502.46 907.92 472.58 908.92 434.02   C 910.42 376.37 947.39 331.34 1001.82 315.49   C 1019.11 310.46 1037.91 309.83 1055.76 311.27   C 1086.29 313.73 1124.45 331.57 1134.64 362.54   A 0.53 0.53 -19.5 0 1 1134.32 363.20   C 1116.35 370.09 1097.88 375.73 1079.79 382.36   C 1073.98 384.48 1067.64 386.22 1061.56 388.30   A 0.64 0.63 64.4 0 1 1060.82 388.03   C 1057.88 383.47 1054.53 378.66 1049.43 376.38   C 1039.08 371.73 1027.59 372.09 1017.39 376.45   C 992.98 386.86 979.88 417.85 986.46 442.75   C 992.48 465.51 1018.67 470.13 1037.35 460.16   Q 1045.03 456.06 1049.89 448.17   A 0.76 0.75 17.6 0 0 1049.29 447.02   Z"
     id="path82" />
  <path
     fill="#9fddd2"
     d="   M 1493.45 494.75   A 0.87 0.76 86.5 0 0 1492.69 493.98   L 1437.06 493.70   A 1.24 1.04 7.9 0 0 1435.91 494.42   Q 1431.74 507.28 1425.97 519.49   A 0.55 0.44 9.8 0 1 1425.50 519.75   L 1347.81 519.75   A 0.54 0.50 12.2 0 1 1347.30 519.03   L 1451.36 313.56   A 0.76 0.60 10.3 0 1 1452.00 313.22   L 1533.00 313.24   A 1.30 1.15 -4.8 0 1 1534.25 314.17   C 1541.79 352.08 1549.77 389.91 1556.97 427.86   C 1559.71 442.32 1563.18 457.82 1565.93 472.91   C 1568.60 487.51 1572.53 503.14 1574.84 518.57   A 1.09 1.03 -4.1 0 1 1573.75 519.75   L 1496.75 519.75   A 0.62 0.57 -2.6 0 1 1496.14 519.23   L 1493.45 494.75   Z   M 1457.68 444.64   L 1486.50 444.98   A 1.25 1.23 -2.5 0 0 1487.76 443.63   Q 1486.02 425.37 1484.51 407.36   C 1483.88 399.74 1484.06 391.56 1483.74 383.62   C 1483.71 382.79 1483.09 381.25 1482.19 381.98   Q 1481.03 382.93 1480.49 384.34   C 1472.75 404.73 1465.40 424.51 1457.36 444.07   A 0.42 0.37 -77.7 0 0 1457.68 444.64   Z"
     id="path84" />
  <path
     fill="#9fddd2"
     d="   M 588.45 519.56   A 0.72 0.72 6.0 0 1 587.75 518.70   C 590.00 507.19 591.28 494.06 592.97 484.13   Q 595.79 467.53 598.67 450.93   C 599.41 446.69 599.79 441.06 600.58 436.37   Q 603.61 418.33 606.69 400.30   C 607.98 392.79 608.38 385.23 609.76 377.79   Q 615.61 346.20 619.56 315.17   Q 619.80 313.31 621.67 313.30   Q 659.09 313.16 695.50 313.07   Q 725.09 313.00 750.97 321.62   C 800.25 338.06 811.21 383.59 800.23 429.52   C 788.24 479.67 748.78 513.22 697.78 518.88   Q 691.27 519.60 677.81 519.68   Q 633.43 519.95 588.45 519.56   Z   M 673.72 458.33   C 703.55 460.10 726.62 442.78 728.19 411.87   C 729.61 384.08 708.21 377.45 685.31 377.30   A 0.56 0.56 4.9 0 0 684.76 377.76   C 682.82 389.03 681.53 401.03 679.75 411.62   Q 675.95 434.30 672.93 457.38   A 0.85 0.84 5.7 0 0 673.72 458.33   Z"
     id="path86" />
  <path
     fill="#9fddd2"
     d="   M 835.84 314.29   A 1.25 1.16 -84.7 0 1 837.00 313.25   L 910.50 313.25   A 0.62 0.55 -83.6 0 1 911.02 313.99   C 907.47 331.06 905.48 349.06 902.79 365.31   C 895.98 406.33 889.99 447.46 883.07 488.46   C 881.57 497.37 880.44 509.01 878.55 519.24   A 0.63 0.54 -83.6 0 1 878.00 519.75   L 804.25 519.75   A 0.47 0.41 -86.3 0 1 803.85 519.23   Q 804.71 512.13 805.57 505.07   C 807.52 489.05 811.43 469.96 813.00 459.25   Q 816.79 433.34 819.76 416.34   Q 821.39 406.97 822.78 396.59   C 824.77 381.67 827.85 366.48 829.90 352.09   Q 832.55 333.43 835.84 314.29   Z"
     id="path88" />
  <path
     fill="#9fddd2"
     d="   M 1169.01 313.78   A 0.77 0.65 4.4 0 1 1169.75 313.25   L 1242.75 313.25   A 0.40 0.39 2.0 0 1 1243.15 313.67   C 1242.14 325.26 1239.96 336.49 1238.11 347.95   C 1236.55 357.58 1235.34 369.42 1233.51 379.50   C 1229.09 403.88 1226.60 423.48 1222.23 448.65   C 1218.15 472.18 1215.22 495.76 1210.59 519.23   A 0.66 0.59 -83.4 0 1 1210.00 519.75   L 1136.75 519.75   A 0.42 0.41 -86.9 0 1 1136.34 519.29   Q 1136.87 513.57 1137.90 507.78   C 1143.50 476.13 1148.02 446.17 1152.21 417.16   C 1154.75 399.65 1158.06 382.26 1160.58 364.78   Q 1164.26 339.34 1169.01 313.78   Z"
     id="path90" />
  <path
     fill="#9fddd2"
     d="   M 1284.41 378.81   A 0.46 0.45 2.1 0 0 1283.93 378.31   L 1244.24 380.00   A 1.33 1.26 3.4 0 1 1242.86 378.53   Q 1246.19 359.39 1249.37 340.63   C 1250.81 332.10 1251.74 322.87 1252.98 313.98   A 0.84 0.77 -85.7 0 1 1253.75 313.25   L 1410.25 313.25   A 0.50 0.43 3.4 0 1 1410.76 313.74   C 1409.64 321.63 1409.05 329.83 1407.72 337.36   Q 1404.00 358.54 1400.48 379.81   A 0.38 0.26 -82.2 0 1 1400.19 380.13   L 1360.25 378.36   A 0.55 0.42 -83.0 0 0 1359.79 378.83   C 1356.64 398.39 1353.04 417.84 1350.21 437.47   C 1347.67 454.99 1344.37 472.11 1341.91 489.91   Q 1339.87 504.63 1337.02 519.23   A 0.64 0.50 -83.3 0 1 1336.50 519.75   L 1263.25 519.75   A 1.22 1.16 -84.1 0 1 1262.13 518.29   Q 1265.56 501.04 1268.00 484.23   C 1270.97 463.72 1274.69 443.36 1277.67 422.86   C 1279.80 408.15 1282.84 393.59 1284.41 378.81   Z"
     id="path92" />
  <path
     fill="#9fddd2"
     d="   M 1728.25 453.53   A 0.76 0.58 -83.2 0 1 1728.78 454.42   Q 1726.21 468.37 1723.82 482.45   C 1722.04 492.92 1720.58 507.02 1718.30 519.25   A 0.62 0.55 -83.6 0 1 1717.75 519.75   L 1581.00 519.75   A 0.49 0.41 -83.6 0 1 1580.62 519.17   Q 1581.81 512.51 1582.58 505.75   C 1584.22 491.26 1587.14 476.92 1589.21 462.48   C 1591.97 443.17 1595.54 424.25 1598.22 405.04   Q 1600.08 391.69 1603.00 376.00   C 1605.30 363.62 1607.00 348.70 1608.96 337.11   Q 1610.93 325.46 1612.98 314.09   A 1.04 1.02 5.0 0 1 1614.00 313.25   L 1686.50 313.25   A 1.40 1.36 5.3 0 1 1687.88 314.87   Q 1683.30 338.54 1679.86 362.84   C 1677.61 378.75 1673.63 397.80 1672.23 409.50   Q 1669.67 430.91 1665.23 452.18   A 1.10 1.05 -83.8 0 0 1666.25 453.51   L 1728.25 453.53   Z"
     id="path94" />
  <path
     fill="#9fddd2"
     d="   M 375.56 565.68   C 383.08 576.24 380.95 591.18 370.08 598.55   C 363.34 603.11 357.73 603.94 348.92 603.96   Q 279.68 604.16 210.45 603.78   C 197.24 603.70 183.26 605.38 175.21 592.27   Q 166.84 578.64 176.91 563.91   C 181.74 556.86 190.65 555.27 198.57 555.27   Q 276.53 555.22 354.50 555.27   C 363.08 555.27 370.57 558.66 375.56 565.68   Z"
     id="path100" />
  <path
     fill="#9fddd2"
     d="   M 2092.50 774.48   C 2037.01 774.98 1998.21 730.73 2004.83 675.82   C 2009.38 638.08 2029.87 605.57 2061.12 584.14   C 2093.57 561.88 2129.32 558.19 2167.43 566.61   Q 2172.72 567.77 2178.83 570.58   A 0.68 0.65 -74.2 0 1 2179.20 571.28   Q 2177.15 585.40 2175.71 599.55   C 2174.03 615.97 2171.51 631.55 2169.39 647.43   Q 2169.22 648.66 2168.37 647.77   C 2156.43 635.34 2141.98 626.48 2124.20 628.08   C 2102.46 630.05 2083.68 649.54 2081.14 670.92   Q 2079.85 681.75 2085.08 690.91   C 2093.87 706.34 2112.56 711.79 2129.53 707.39   C 2143.10 703.87 2151.63 698.12 2161.75 690.76   Q 2163.20 689.71 2162.67 691.42   Q 2161.93 693.81 2161.53 696.26   Q 2157.03 723.32 2151.32 750.16   Q 2150.22 755.31 2149.14 765.88   A 0.78 0.76 -6.7 0 1 2148.61 766.53   C 2129.90 772.96 2112.71 774.30 2092.50 774.48   Z"
     id="path102" />
  <path
     fill="#9fddd2"
     d="   M 853.04 714.99   C 849.86 719.94 846.99 725.24 843.76 729.87   Q 829.92 749.75 815.95 769.19   Q 814.31 771.48 811.49 771.48   C 784.51 771.51 757.57 771.50 730.62 771.21   Q 729.24 771.19 730.11 770.12   L 818.07 662.57   A 1.47 1.46 51.3 0 0 818.24 660.97   C 802.28 629.31 785.36 597.87 769.57 565.88   A 0.47 0.46 -12.6 0 1 770.00 565.22   L 853.25 565.24   A 0.89 0.79 -7.4 0 1 854.08 565.80   C 858.70 581.45 865.14 595.63 868.50 611.76   Q 868.89 613.63 869.70 611.90   C 871.41 608.29 872.71 604.33 874.87 600.96   Q 886.15 583.38 897.33 565.72   A 0.98 0.61 -66.8 0 1 898.00 565.25   L 981.00 565.25   Q 981.49 565.25 981.22 565.71   Q 979.50 568.64 978.21 570.20   Q 940.98 615.36 903.70 660.61   A 2.26 2.26 52.8 0 0 903.38 662.97   Q 905.89 668.62 909.14 674.84   C 923.94 703.23 938.16 731.93 953.07 760.26   Q 955.83 765.49 958.29 770.89   A 0.35 0.33 76.9 0 1 958.00 771.39   L 874.00 771.39   A 0.79 0.74 79.3 0 1 873.29 770.87   Q 866.04 751.94 858.43 733.25   Q 855.05 724.96 854.49 715.50   Q 854.44 714.71 853.80 714.58   A 0.86 0.64 -64.9 0 0 853.04 714.99   Z"
     id="path104" />
  <path
     fill="#9fddd2"
     d="   M 671.50 715.25   L 735.50 715.25   A 0.46 0.44 5.1 0 1 735.96 715.77   C 732.23 734.14 730.77 752.80 726.58 771.09   A 0.61 0.60 -82.9 0 1 725.98 771.56   Q 638.72 770.95 621.26 771.26   Q 598.45 771.66 586.28 771.26   A 0.43 0.42 6.4 0 1 585.87 770.76   C 588.96 754.91 590.85 738.21 593.39 723.15   C 595.68 709.59 598.14 696.17 599.85 682.53   C 602.21 663.66 606.05 646.52 607.52 636.25   Q 611.29 610.02 614.22 593.85   C 615.96 584.27 616.89 575.18 618.10 565.80   A 0.66 0.62 3.5 0 1 618.75 565.26   L 756.75 565.25   A 0.50 0.41 -88.7 0 1 757.16 565.77   Q 756.93 570.56 756.76 571.50   Q 752.18 596.16 748.52 620.98   A 0.58 0.57 4.0 0 1 747.95 621.47   Q 719.46 621.53 691.00 621.54   Q 688.27 621.54 685.56 621.77   A 0.71 0.44 -1.4 0 0 684.93 622.18   L 681.92 640.74   A 0.57 0.48 3.8 0 0 682.50 641.30   L 739.25 641.45   A 0.85 0.83 -84.8 0 1 740.06 642.45   Q 735.86 665.25 732.07 687.81   Q 731.81 689.33 731.47 693.76   A 0.52 0.47 -88.1 0 1 731.00 694.25   L 674.50 694.25   A 0.71 0.67 4.9 0 0 673.81 694.80   Q 671.88 704.81 671.10 714.69   A 0.52 0.41 -87.5 0 0 671.50 715.25   Z"
     id="path106" />
  <path
     fill="#9fddd2"
     d="   M 1046.56 709.55   A 0.59 0.58 -84.9 0 0 1045.97 710.05   C 1043.03 730.43 1038.79 750.53 1036.38 770.96   A 0.64 0.61 3.0 0 1 1035.75 771.50   L 964.25 771.50   A 0.63 0.57 -84.5 0 1 963.70 770.76   Q 967.49 749.77 970.99 728.75   C 971.78 723.99 972.23 717.38 973.21 711.78   Q 976.68 691.89 979.59 671.90   C 984.75 636.47 991.37 601.21 996.50 565.77   A 0.59 0.57 3.9 0 1 997.08 565.28   Q 1046.28 565.22 1095.50 565.32   C 1107.84 565.34 1121.22 568.13 1132.07 572.84   C 1164.27 586.81 1169.07 620.37 1161.35 650.79   C 1152.16 687.00 1122.41 709.03 1085.30 709.67   Q 1066.14 710.01 1046.56 709.55   Z   M 1054.79 657.54   C 1063.52 657.97 1077.79 657.51 1084.86 651.70   C 1092.24 645.65 1097.09 631.77 1087.11 625.14   C 1080.18 620.53 1068.92 621.32 1060.97 621.71   A 0.99 0.94 -86.0 0 0 1060.09 622.52   L 1054.20 656.74   A 0.68 0.64 -83.4 0 0 1054.79 657.54   Z"
     id="path108" />
  <path
     fill="#9fddd2"
     d="   M 1236.75 715.25   L 1300.75 715.25   A 0.48 0.44 -89.4 0 1 1301.19 715.74   Q 1301.12 719.72 1300.75 721.75   Q 1296.24 746.31 1292.24 770.96   A 0.59 0.48 -84.5 0 1 1291.75 771.46   L 1152.25 771.40   A 0.50 0.46 -89.4 0 1 1151.79 770.89   Q 1151.86 766.85 1152.55 762.75   Q 1156.11 741.72 1159.68 720.69   C 1160.39 716.54 1160.83 710.28 1161.70 705.21   Q 1164.69 687.72 1167.65 670.22   C 1168.71 663.93 1169.35 656.07 1170.23 651.00   C 1176.16 617.02 1179.74 589.78 1184.34 565.74   A 0.69 0.67 -84.2 0 1 1185.00 565.18   L 1322.00 565.55   A 0.80 0.79 -84.8 0 1 1322.78 566.49   C 1319.72 583.81 1317.64 602.90 1314.28 621.01   A 0.63 0.52 -84.2 0 1 1313.75 621.53   L 1251.50 621.65   A 0.64 0.52 4.3 0 0 1250.89 622.08   L 1247.53 641.00   A 0.25 0.18 -83.5 0 0 1247.69 641.29   L 1304.50 641.26   A 0.69 0.67 4.9 0 1 1305.18 642.05   C 1302.15 658.20 1300.45 676.56 1296.92 693.69   A 0.71 0.68 -83.7 0 1 1296.25 694.25   L 1240.00 694.25   A 1.22 1.20 -84.1 0 0 1238.82 695.22   Q 1236.92 704.53 1236.34 714.68   A 0.54 0.42 -88.1 0 0 1236.75 715.25   Z"
     id="path110" />
  <path
     fill="#9fddd2"
     d="   M 1692.61 714.31   A 0.89 0.88 2.1 0 0 1693.50 715.25   L 1756.75 715.25   A 0.51 0.45 3.0 0 1 1757.26 715.75   Q 1753.76 743.61 1748.27 771.16   A 0.59 0.45 4.0 0 1 1747.71 771.53   Q 1704.22 771.32 1660.75 771.25   C 1643.91 771.22 1625.47 771.77 1607.76 771.20   A 0.44 0.43 5.6 0 1 1607.34 770.69   C 1612.63 741.53 1616.84 712.41 1622.49 679.50   C 1623.37 674.33 1623.98 666.42 1625.13 659.87   C 1629.57 634.54 1632.77 609.05 1637.52 583.75   Q 1638.50 578.56 1639.64 565.82   A 0.62 0.56 2.0 0 1 1640.25 565.30   L 1778.94 565.27   A 0.40 0.35 -84.6 0 1 1779.28 565.74   Q 1775.37 587.95 1771.69 610.18   C 1771.14 613.51 1771.04 617.43 1770.53 621.04   A 0.57 0.53 -85.6 0 1 1770.00 621.53   L 1707.25 621.59   A 0.77 0.75 -86.4 0 0 1706.52 622.25   L 1704.13 640.73   A 0.61 0.47 2.8 0 0 1704.75 641.26   L 1760.25 641.30   A 1.28 1.16 4.8 0 1 1761.53 642.68   Q 1759.62 652.82 1757.80 663.61   C 1756.37 672.06 1755.23 683.74 1753.31 693.76   A 0.60 0.56 -84.5 0 1 1752.75 694.25   L 1696.00 694.25   A 0.72 0.59 -82.9 0 0 1695.40 694.82   Q 1693.25 704.96 1692.61 714.31   Z"
     id="path112" />
  <path
     fill="#9fddd2"
     d="   M 1852.80 662.71   Q 1852.44 676.03 1851.53 689.54   C 1850.56 703.80 1846.82 721.56 1845.27 732.50   Q 1841.80 757.05 1839.02 770.82   A 0.62 0.47 3.7 0 1 1838.43 771.21   L 1769.06 771.56   A 1.10 1.05 5.4 0 1 1767.97 770.30   C 1770.15 759.42 1771.15 747.36 1772.95 737.27   Q 1776.36 718.14 1779.12 698.90   C 1782.00 678.84 1785.83 658.99 1788.63 638.91   C 1791.99 614.85 1796.71 590.99 1799.67 567.17   Q 1799.90 565.32 1801.75 565.32   L 1871.75 565.27   A 0.58 0.47 74.3 0 1 1872.21 565.60   Q 1873.87 568.91 1875.33 572.36   Q 1897.98 625.51 1921.22 678.41   C 1922.17 680.58 1923.98 680.19 1923.99 677.72   C 1924.01 661.37 1923.48 645.15 1926.02 628.93   Q 1928.33 614.22 1928.55 612.50   C 1930.51 597.17 1933.46 581.47 1935.75 565.88   A 0.53 0.50 -86.1 0 1 1936.25 565.42   L 2005.75 565.48   A 1.37 1.32 5.3 0 1 2007.11 567.06   Q 2004.48 580.73 2002.71 594.06   C 2000.29 612.28 1996.87 629.14 1994.44 646.78   Q 1991.82 665.79 1987.84 687.07   C 1986.20 695.83 1985.31 705.96 1983.90 714.28   Q 1980.89 732.03 1977.86 749.78   C 1976.80 755.95 1976.32 763.80 1974.96 770.76   A 0.99 0.92 5.3 0 1 1974.00 771.50   L 1904.00 771.50   A 0.84 0.55 71.2 0 1 1903.40 771.03   Q 1897.44 759.41 1895.86 755.85   Q 1877.36 714.39 1858.61 673.06   Q 1856.19 667.73 1853.39 662.57   Q 1852.83 661.53 1852.80 662.71   Z"
     id="path114" />
  <path
     fill="#9fddd2"
     d="   M 1396.70 705.54   Q 1394.11 716.35 1393.50 721.50   Q 1390.69 745.52 1385.65 770.87   A 0.92 0.81 5.2 0 1 1384.75 771.53   L 1313.25 771.20   A 0.45 0.40 4.3 0 1 1312.80 770.73   Q 1315.71 755.01 1317.91 739.15   C 1322.55 705.57 1328.77 672.49 1333.60 638.65   C 1337.06 614.41 1341.53 590.37 1344.82 566.07   A 0.57 0.56 -86.6 0 1 1345.38 565.57   Q 1426.45 565.34 1443.99 565.52   Q 1459.72 565.68 1475.24 571.39   C 1508.21 583.52 1516.43 611.19 1509.15 643.88   Q 1506.71 654.83 1502.25 662.56   C 1492.81 678.91 1478.92 684.44 1461.83 690.80   A 0.44 0.44 55.9 0 0 1461.69 691.54   C 1468.05 697.35 1471.82 703.05 1476.13 711.43   C 1486.22 731.05 1496.41 750.67 1506.43 770.33   A 0.79 0.78 76.2 0 1 1505.75 771.48   L 1420.75 771.13   A 0.73 0.69 79.1 0 1 1420.11 770.67   C 1417.39 763.96 1415.23 756.00 1413.17 750.13   Q 1410.88 743.59 1408.72 737.00   C 1406.12 729.01 1401.58 718.46 1399.48 709.27   Q 1398.87 706.59 1397.23 705.35   A 0.34 0.33 -64.5 0 0 1396.70 705.54   Z   M 1436.31 629.65   C 1432.17 620.22 1418.93 621.16 1410.20 621.62   A 0.76 0.50 -85.9 0 0 1409.69 622.28   Q 1407.76 638.34 1404.68 654.24   Q 1404.27 656.37 1406.38 656.51   C 1414.23 657.06 1427.85 656.31 1433.04 648.79   C 1436.46 643.84 1438.87 635.47 1436.31 629.65   Z"
     id="path116" />
  <path
     fill="#9fddd2"
     d="   M 1510.50 771.49   A 1.02 0.85 -83.4 0 1 1509.70 770.28   C 1512.97 753.67 1515.16 735.90 1517.70 720.45   C 1519.97 706.68 1522.63 692.91 1524.35 679.06   C 1526.64 660.59 1530.70 641.95 1532.27 630.25   Q 1534.50 613.64 1537.35 597.12   C 1539.01 587.50 1540.08 576.35 1541.97 566.01   A 0.62 0.52 -84.2 0 1 1542.50 565.50   L 1616.50 565.50   A 0.44 0.34 -84.4 0 1 1616.82 566.01   C 1615.24 575.75 1614.38 585.94 1612.70 595.28   Q 1608.79 617.00 1605.65 638.84   C 1603.45 654.24 1600.33 669.95 1598.12 685.59   C 1596.00 700.59 1593.79 713.33 1591.46 727.20   C 1589.30 740.03 1587.51 756.21 1584.60 770.52   A 1.22 1.18 -84.0 0 1 1583.44 771.49   L 1510.50 771.49   Z"
     id="path118" />
  <path
     fill="#9fddd2"
     d="   M 2251.98 694.94   Q 2250.05 704.77 2249.31 714.75   A 0.68 0.47 1.5 0 0 2250.00 715.25   L 2314.00 715.25   A 0.83 0.78 -84.2 0 1 2314.76 716.24   Q 2311.47 733.41 2308.82 750.68   C 2308.01 755.97 2307.29 764.08 2306.04 770.74   A 0.62 0.61 -84.2 0 1 2305.44 771.24   Q 2238.84 771.27 2172.25 771.24   C 2170.77 771.24 2167.73 771.63 2165.53 771.28   A 0.51 0.50 -82.0 0 1 2165.11 770.71   C 2168.44 746.07 2172.87 721.68 2176.38 697.10   C 2178.75 680.54 2182.10 664.19 2184.33 647.59   C 2186.37 632.35 2189.14 617.30 2191.28 602.02   Q 2193.80 583.95 2197.24 566.02   A 0.64 0.49 -83.2 0 1 2197.75 565.50   L 2335.50 565.50   A 0.49 0.43 -83.4 0 1 2335.90 566.09   C 2332.38 584.21 2330.14 603.39 2327.38 621.04   A 0.73 0.58 3.6 0 1 2326.68 621.53   L 2266.00 621.57   Q 2264.13 621.58 2263.78 623.49   L 2260.63 640.42   A 0.74 0.66 -83.5 0 0 2261.25 641.30   L 2317.25 641.54   A 0.53 0.51 2.9 0 1 2317.78 642.10   C 2315.99 659.58 2313.06 676.58 2309.88 693.89   A 0.45 0.43 4.5 0 1 2309.44 694.25   L 2252.75 694.25   A 0.86 0.77 -83.6 0 0 2251.98 694.94   Z"
     id="path120" />
  <path
     id="rect126"
     style="fill:#9fddd2"
     d="m 194.84,635.64001 h 161.7 c 12.88604,0 23.26,10.37396 23.26,23.26 v 1.16 c 0,12.88604 -10.37396,23.26 -23.26,23.26 h -161.7 c -12.88604,0 -23.26,-10.37396 -23.26,-23.26 v -1.16 c 0,-12.88604 10.37396,-23.26 23.26,-23.26 z" />
  <path
     fill="#9fddd2"
     d="   M 315.47 745.42   C 296.30 769.72 253.51 769.79 234.93 744.30   Q 225.88 731.89 223.34 717.77   A 1.60 1.49 -4.7 0 1 224.94 716.02   L 326.94 716.01   A 0.27 0.25 -85.9 0 1 327.18 716.31   Q 325.39 732.85 315.47 745.42   Z"
     id="path128" />
</svg>
